<svg width="500" height="500" viewBox="0 0 500 500" fill="none" xmlns="http://www.w3.org/2000/svg">
<g clip-path="url(#clip0_27_328)">
<rect width="500" height="500" rx="110" fill="black"/>
<g clip-path="url(#clip1_27_328)">
<rect y="17" width="500" height="500" rx="250" fill="white"/>
<path d="M213.756 167.966C213.756 148.129 229.837 132.047 249.675 132.047V132.047C269.512 132.047 285.593 148.129 285.593 167.966V275.722H300.987C312.322 275.722 321.512 266.532 321.512 255.197V239.803C321.512 219.966 337.593 203.884 357.43 203.884V203.884C377.268 203.884 393.349 219.966 393.349 239.803V256.13C393.349 306.625 352.415 347.559 301.92 347.559H285.593V524.458H213.756V419.396V419.396C154.244 419.396 106 371.152 106 311.64V275.722C106 255.884 122.081 239.803 141.919 239.803V239.803C161.756 239.803 177.837 255.884 177.837 275.722V318.824C177.837 334.694 190.702 347.559 206.572 347.559H213.756V167.966Z" fill="black"/>
<circle cx="357.43" cy="239.803" r="17.9596" fill="white"/>
<circle cx="249.675" cy="167.966" r="17.9596" fill="white"/>
<circle cx="141.919" cy="275.722" r="17.9596" fill="white"/>
</g>
</g>
<defs>
<clipPath id="clip0_27_328">
<rect width="500" height="500" rx="110" fill="white"/>
</clipPath>
<clipPath id="clip1_27_328">
<rect y="17" width="500" height="500" rx="250" fill="white"/>
</clipPath>
</defs>
</svg>
