<?xml version="1.0" encoding="UTF-8"?>
<svg id="Layer_1" xmlns="http://www.w3.org/2000/svg" version="1.1" viewBox="0 0 478.1 164.2">
  <!-- Generator: Adobe Illustrator 29.0.0, SVG Export Plug-In . SVG Version: 2.1.0 Build 186)  -->
  <defs>
    <style>
      .st0 {
        fill: #231f20;
      }
    </style>
  </defs>
  <g id="vWapMB">
    <g>
      <path class="st0" d="M62.1,51.7l29.5,53,29.4-53h10.2v63.9h-9.2v-45.5l-25.6,45.3c-.2.3-.5.3-.8.3-1.7.2-6.4.2-8.1,0s-.6,0-.8-.3l-25.6-45.3v45.5h-9.5v-63.9h10.6Z"/>
      <polygon class="st0" points="226.8 51.1 226.8 60.5 170.2 60.5 170.2 78.6 207.9 78.6 207.9 87.8 170.2 87.8 170.2 105.7 170.6 106.1 226.8 106.1 226.8 115.3 160.7 115.3 160.7 51.1 226.8 51.1"/>
      <path class="st0" d="M342.9,115.5l.2-.8,36.4-63.3h.8s8.3,0,8.3,0l36.8,64.2h-10.5l-10.7-18.2h-39.9c0,0-10.9,18.2-10.9,18.2h-10.5ZM369.3,88h29.8l-14.8-25.8-15,25.8Z"/>
    </g>
  </g>
  <path d="M300.1,51.1c-13-1.5-44.9-2.2-48.4,14.8-3,14.4,11.5,18.4,22.4,20.1,9.5,1.5,30.7,2,38.2,6.5,5.1,3,3.8,7.7-.8,10.4-8.9,5.2-29.8,4.3-40,2.5-5.3-.9-10.5-2.4-15.4-4.5l-3.7,8v.3c4.5,1.8,9,3.4,13.7,4.4,13.8,3.1,46.7,5.1,55.7-8.2,4.3-6.4,3-14.9-3-19.6-9.1-7.2-33.4-7.3-45.3-9.4-4.6-.8-17.3-3-12.5-10.4,4.4-6.6,23.3-6.8,30.5-6.5,9,.3,17.9,1.9,26.3,5.1l3.7-8c-6.6-3.1-14.3-4.8-21.5-5.6Z"/>
  <path class="st0" d="M464.2,150.9H11.5V13.9h452.8v137ZM18.5,143.9h438.8V20.9H18.5v123Z"/>
</svg>